<svg width="32" height="32" viewBox="0 0 32 32" fill="none" xmlns="http://www.w3.org/2000/svg">
<path d="M31 25H26.5V28L21.4844 25H13V20.5H22V10H31V25ZM20.5 19H10.4688L5.5 22V19H1V4H20.5V19ZM9.83594 16.4922H11.7109V14.6172H9.83594V16.4922ZM9.50781 6.50781C8.28906 6.50781 7.30469 7.49219 7.30469 8.66406V8.94531H9.17969V8.71094C9.17969 8.52344 9.32031 8.38281 9.50781 8.38281H11.7109C12.0391 8.38281 12.3203 8.61719 12.3203 8.94531C12.3203 9.17969 12.1797 9.36719 12.0391 9.46094L10.3047 10.4922L9.83594 10.7266V13.0703H11.7109V11.8047L12.9766 11.1016C13.7266 10.6797 14.1953 9.83594 14.1953 8.94531C14.1953 7.58594 13.0703 6.50781 11.7109 6.50781H9.50781Z" fill="#173767"/>
</svg>
