<svg width="32" height="32" viewBox="0 0 32 32" fill="none" xmlns="http://www.w3.org/2000/svg">
<path d="M19.9141 12.4375C23.1953 12.4375 25.9141 15.1094 25.9141 18.4375C25.9141 19.6562 25.4922 20.8281 24.8359 21.8125L27.7891 24.7188L28.5859 25.5156L27.0391 27.1094L23.2891 23.3594C22.3047 24.0156 21.1328 24.4375 19.9141 24.4375C16.5859 24.4375 13.9141 21.7188 13.9141 18.4375C13.9141 15.1094 16.5859 12.4375 19.9141 12.4375ZM14.668 12.3906C12.9798 13.8551 11.9141 16.0164 11.9141 18.4375C11.9141 21.8024 14.0185 24.7209 17.0107 25.8906H3.41406V12.3906H14.668ZM19.9141 14.6875C18.5547 14.6875 17.3359 15.3906 16.6328 16.5625C15.9766 17.6875 15.9766 19.1406 16.6328 20.3125C17.3359 21.4375 18.5547 22.1875 19.9141 22.1875C21.2266 22.1875 22.4453 21.4375 23.1484 20.3125C23.8047 19.1406 23.8047 17.6875 23.1484 16.5625C22.4453 15.3906 21.2266 14.6875 19.9141 14.6875ZM13.1641 10.8906H3.41406L6.41406 4.89062H13.1641V10.8906ZM24.4141 10.8906H14.6641V4.89062H21.4141L24.4141 10.8906Z" fill="#173767"/>
</svg>
