<svg width="32" height="32" viewBox="0 0 32 32" fill="none" xmlns="http://www.w3.org/2000/svg">
<path d="M18.9999 5.82812V7V10H15.9999V8.5H10.7499V14.5H12.2968L11.828 16H9.99988V23.5H6.99988V26.5H3.24988V23.5H0.999878V8.5V5.82812C0.999878 5.82812 4.98425 4 9.99988 4C15.0155 4 18.9999 5.82812 18.9999 5.82812ZM15.9999 11.5H18.9999H26.4999H27.578L27.9061 12.5312L29.5468 17.5H30.9999V25V28H27.2499V25H15.2499V28H11.4999V25V17.5H12.9061L13.8905 14.5L14.5468 12.5312L14.8749 11.5H15.9999ZM18.9999 14.5H17.078L16.0468 17.5H18.9999H26.4061L25.3749 14.5H18.9999ZM9.24988 8.5H3.99988V14.5H9.24988V8.5ZM3.62488 18.25C3.62488 18.9062 4.09363 19.375 4.74988 19.375C5.35925 19.375 5.87488 18.9062 5.87488 18.25C5.87488 17.6406 5.35925 17.125 4.74988 17.125C4.09363 17.125 3.62488 17.6406 3.62488 18.25ZM15.2499 20.125C14.5936 20.125 14.1249 20.6406 14.1249 21.25C14.1249 21.9062 14.5936 22.375 15.2499 22.375C15.8593 22.375 16.3749 21.9062 16.3749 21.25C16.3749 20.6406 15.8593 20.125 15.2499 20.125ZM26.1249 21.25C26.1249 21.9062 26.5936 22.375 27.2499 22.375C27.8593 22.375 28.3749 21.9062 28.3749 21.25C28.3749 20.6406 27.8593 20.125 27.2499 20.125C26.5936 20.125 26.1249 20.6406 26.1249 21.25Z" fill="#173767"/>
</svg>
