<svg width="32" height="32" viewBox="0 0 32 32" fill="none" xmlns="http://www.w3.org/2000/svg">
<path d="M7 6.99951V23.4995H26.5H28V26.4995H26.5H5.5H4V24.9995V6.99951V5.49951H7V6.99951ZM19 6.24951V8.49951H20.5V15.9995H19V18.2495V18.9995H17.5V18.2495V15.9995H16V8.49951H17.5V6.24951V5.49951H19V6.24951ZM22 12.9995H23.5V10.7495V9.99951H25V10.7495V12.9995H26.5V18.9995H25V21.2495V21.9995H23.5V21.2495V18.9995H22V12.9995ZM14.5 9.99951V18.9995H13V21.2495V21.9995H11.5V21.2495V18.9995H10V9.99951H11.5V7.74951V6.99951H13V7.74951V9.99951H14.5Z" fill="#173767"/>
</svg>
