<svg width="32" height="32" viewBox="0 0 32 32" fill="none" xmlns="http://www.w3.org/2000/svg">
<path d="M11.7344 7C12.3438 5.26562 14.0312 4 16 4C17.9219 4 19.6094 5.26562 20.2188 7H25V28H7V7H11.7344ZM17.5 8.5C17.5 7.70312 16.7969 7 16 7C15.1562 7 14.5 7.70312 14.5 8.5C14.5 9.34375 15.1562 10 16 10C16.7969 10 17.5 9.34375 17.5 8.5ZM16.2812 13.75L15.25 12.7188L14.6875 13.2344L12.25 15.7188L11.2656 14.7344L10.75 14.2188L9.67188 15.25L10.1875 15.8125L11.6875 17.3125L12.25 17.8281L12.7656 17.3125L15.7656 14.3125L16.2812 13.75ZM16.75 16H16V17.5H16.75H21.25H22V16H21.25H16.75ZM14.5 20.5V22H15.25H21.25H22V20.5H21.25H15.25H14.5ZM11.5 22.375C12.1094 22.375 12.625 21.9062 12.625 21.25C12.625 20.6406 12.1094 20.125 11.5 20.125C10.8438 20.125 10.375 20.6406 10.375 21.25C10.375 21.9062 10.8438 22.375 11.5 22.375Z" fill="#173767"/>
</svg>
