<svg width="32" height="32" viewBox="0 0 32 32" fill="none" xmlns="http://www.w3.org/2000/svg">
<path d="M11.1484 8.125L7.77344 11.875L7.11719 12.5781L6.41406 11.9219L4.53906 10.0469L3.88281 9.34375L5.24219 8.03125L5.89844 8.6875L7.07031 9.85938L9.78906 6.85938L10.3984 6.15625L11.8047 7.42188L11.1484 8.125ZM11.1484 15.625L7.77344 19.375L7.11719 20.0781L6.41406 19.4219L4.53906 17.5469L3.88281 16.8438L5.24219 15.5312L5.89844 16.1875L7.07031 17.3594L9.78906 14.3594L10.3984 13.6562L11.8047 14.9219L11.1484 15.625ZM13.1172 8.21875H14.2422H26.9922H28.1172V10.4688H26.9922H14.2422H13.1172V8.21875ZM13.1172 15.7188H14.2422H26.9922H28.1172V17.9688H26.9922H14.2422H13.1172V15.7188ZM11.6172 23.2188H12.7422H26.9922H28.1172V25.4688H26.9922H12.7422H11.6172V23.2188ZM8.61719 24.3438C8.61719 25.1875 7.91406 25.8438 7.11719 25.8438C6.27344 25.8438 5.61719 25.1875 5.61719 24.3438C5.61719 23.5469 6.27344 22.8438 7.11719 22.8438C7.91406 22.8438 8.61719 23.5469 8.61719 24.3438Z" fill="#173767"/>
</svg>
