<svg width="32" height="32" viewBox="0 0 32 32" fill="none" xmlns="http://www.w3.org/2000/svg">
<path d="M17.9922 4.375L20.8984 5.26562L20.4297 6.71875L14.4297 26.2188L14.0078 27.625L11.1484 26.7812L11.5703 25.3281L17.5703 5.82812L17.9922 4.375ZM21.3672 10.75L23.5234 8.64062L24.5547 9.71875L29.8047 14.9688L30.8828 16L29.8047 17.0781L24.5547 22.3281L23.5234 23.4062L21.3672 21.25L22.4453 20.2188L26.6172 16L22.4453 11.8281L21.3672 10.75ZM8.52344 8.64062L10.6328 10.75L9.55469 11.8281L5.38281 16L9.55469 20.2188L10.6328 21.25L8.52344 23.4062L7.44531 22.3281L2.19531 17.0781L1.11719 16L2.19531 14.9688L7.44531 9.71875L8.52344 8.64062Z" fill="#173767"/>
</svg>
