<svg width="32" height="32" viewBox="0 0 32 32" fill="none" xmlns="http://www.w3.org/2000/svg">
<path d="M4 4H28V23.5H18.25L11.5 28V23.5H4V4ZM10.75 12.0625C10.75 12.8125 11.0312 13.5156 11.5938 14.0312L15.4844 17.7812L16 18.2969L16.5156 17.7812L20.3594 14.0312C20.9219 13.5156 21.25 12.8125 21.25 12.0625C21.25 10.5156 19.9844 9.25 18.4375 9.25H18.3438C17.5938 9.25 16.8906 9.57812 16.3281 10.0938L16 10.4219L15.625 10.0938C15.0625 9.57812 14.3594 9.25 13.6094 9.25H13.5156C11.9688 9.25 10.75 10.5156 10.75 12.0625Z" fill="#173767"/>
</svg>
