<svg width="32" height="32" viewBox="0 0 32 32" fill="none" xmlns="http://www.w3.org/2000/svg">
<path d="M22.7734 10C22.7734 12.1094 21.5547 13.9375 19.7734 15.0156V17.5H12.2734V15.0156C10.4453 13.9375 9.27344 12.1094 9.27344 10C9.27344 6.71875 12.2734 4 16.0234 4C19.7266 4 22.7734 6.71875 22.7734 10ZM13.3984 12.25C14.1953 12.25 14.8984 11.5938 14.8984 10.75C14.8984 9.95312 14.1953 9.25 13.3984 9.25C12.5547 9.25 11.8984 9.95312 11.8984 10.75C11.8984 11.5938 12.5547 12.25 13.3984 12.25ZM20.1484 10.75C20.1484 9.95312 19.4453 9.25 18.6484 9.25C17.8047 9.25 17.1484 9.95312 17.1484 10.75C17.1484 11.5938 17.8047 12.25 18.6484 12.25C19.4453 12.25 20.1484 11.5938 20.1484 10.75ZM6.27344 15.5312L7.63281 16.1406L16.0234 20.0781L24.3672 16.1406L25.7266 15.5312L26.9922 18.25L25.6328 18.8594L19.5391 21.7656L25.6328 24.625L26.9922 25.2812L25.7266 28L24.3672 27.3438L16.0234 23.4062L7.63281 27.3438L6.27344 28L5.00781 25.2812L6.36719 24.625L12.4609 21.7656L6.36719 18.8594L5.00781 18.25L6.27344 15.5312Z" fill="#173767"/>
</svg>
