<svg width="32" height="32" viewBox="0 0 32 32" fill="none" xmlns="http://www.w3.org/2000/svg">
<path d="M11.5 3.98828H12.625H15.25H16.375V5.11328V12.2383H17.875H19V14.4883H17.875H15.25H12.625H11.5V12.2383H12.625H14.125V6.23828H12.625H11.5V3.98828ZM1 17.4883H2.125H4.75H5.875V18.6133V25.7383H7.375H8.5V27.9883H7.375H4.75H2.125H1V25.7383H2.125H3.625V19.7383H2.125H1V17.4883ZM2.125 3.98828H8.875H10V5.11328V13.3633V14.4883H8.875H2.125H1V13.3633V5.11328V3.98828H2.125ZM3.25 12.2383H7.75V6.23828H3.25V12.2383ZM10 17.4883H11.125H16.8906C16.5156 18.1914 16.2812 18.9414 16.0938 19.7383H12.25V25.7383H14.5H17.3125C17.7812 26.4414 18.3438 27.0977 19 27.6133V27.9883H17.875H11.125H10V26.8633V18.6133V17.4883ZM17.5 21.2383C17.5 18.8477 18.7656 16.6445 20.875 15.4258C22.9375 14.207 25.5156 14.207 27.625 15.4258C29.6875 16.6445 31 18.8477 31 21.2383C31 23.6758 29.6875 25.8789 27.625 27.0977C25.5156 28.3164 22.9375 28.3164 20.875 27.0977C18.7656 25.8789 17.5 23.6758 17.5 21.2383ZM27.9062 19.7383L26.875 18.707L26.3125 19.2227L23.5 22.082L22.1406 20.7227L21.625 20.207L20.5469 21.2383L21.0625 21.8008L22.9375 23.6758L23.5 24.1914L24.0156 23.6758L27.3906 20.3008L27.9062 19.7383Z" fill="#173767"/>
</svg>
