<svg width="32" height="32" viewBox="0 0 32 32" fill="none" xmlns="http://www.w3.org/2000/svg">
<path d="M18.6252 3.99956H21.2502H22.3752V5.12456V12.2496H23.8752H25.0002V14.4996H23.8752H21.2502H18.6252H17.5002V12.2496H18.6252H20.1252V6.24956H18.6252H17.5002V3.99956H18.6252ZM8.12524 17.4996H10.7502H11.8752V18.6246V25.7496H13.3752H14.5002V27.9996H13.3752H10.7502H8.12524H7.00024V25.7496H8.12524H9.62524V19.7496H8.12524H7.00024V17.4996H8.12524ZM7.00024 3.99956H8.12524H14.8752H16.0002V5.12456V13.3746V14.4996H14.8752H8.12524H7.00024V13.3746V5.12456V3.99956ZM9.25024 6.24956V12.2496H13.7502V6.24956H9.25024ZM17.1252 17.4996H23.8752H25.0002V18.6246V26.8746V27.9996H23.8752H17.1252H16.0002V26.8746V18.6246V17.4996H17.1252ZM18.2502 25.7496H22.7502V19.7496H18.2502V25.7496Z" fill="#173767"/>
</svg>
