<svg width="32" height="32" viewBox="0 0 32 32" fill="none" xmlns="http://www.w3.org/2000/svg">
<path d="M17.0547 5.19531L19.6797 7.82031L20.7578 8.85156L18.6484 11.0078L17.5703 9.92969L17.5234 9.88281V14.4766H22.1172L22.0703 14.4297L20.9922 13.3516L23.1484 11.2422L24.1797 12.3203L26.8047 14.9453L27.8828 15.9766L26.8047 17.0547L24.1797 19.6797L23.1484 20.7578L20.9922 18.6016L22.0703 17.5703L22.1172 17.4766H17.5234V22.1172L17.5703 22.0703L18.6484 20.9922L20.7578 23.1016L19.6797 24.1797L17.0547 26.8047L16.0234 27.8828L14.9453 26.8047L12.3203 24.1797L11.2422 23.1016L13.3984 20.9922L14.4297 22.0703L14.5234 22.1172V17.4766H9.88281L9.92969 17.5703L11.0078 18.6016L8.89844 20.7578L7.82031 19.6797L5.19531 17.0547L4.11719 15.9766L5.19531 14.9453L7.82031 12.3203L8.89844 11.2422L11.0078 13.3516L9.92969 14.4297L9.88281 14.4766H14.5234V9.88281L14.4297 9.92969L13.3984 11.0078L11.2422 8.85156L12.3203 7.82031L14.9453 5.19531L16.0234 4.11719L17.0547 5.19531Z" fill="#173767"/>
</svg>
