<svg width="32" height="32" viewBox="0 0 32 32" fill="none" xmlns="http://www.w3.org/2000/svg">
<path d="M17.5 4V11.5H25V28H7V4H17.5ZM19 4L25 10H19V4ZM10.375 14.5H9.625V15.25V16.75V20.5V24.25V25H10.375H14.125H17.875H21.625H22.375V24.25V20.5V16.75V15.25V14.5H21.625H10.375ZM11.125 19.75V17.5H13.375V19.75H11.125ZM14.875 19.75V17.5H17.125V19.75H14.875ZM18.625 19.75V17.5H20.875V19.75H18.625ZM18.625 21.25H20.875V23.5H18.625V21.25ZM17.125 21.25V23.5H14.875V21.25H17.125ZM13.375 21.25V23.5H11.125V21.25H13.375Z" fill="#173767"/>
</svg>
