<svg width="32" height="32" viewBox="0 0 32 32" fill="none" xmlns="http://www.w3.org/2000/svg">
<path d="M10.75 8.5V11.5H15.25V8.5C15.25 7.28125 14.2188 6.25 13 6.25C11.7344 6.25 10.75 7.28125 10.75 8.5ZM8.5 11.5V8.5C8.5 6.01562 10.5156 4 13 4C15.4844 4 17.5 6.01562 17.5 8.5V11.5H23.5V14.5H10V26.5H2.5V11.5H8.5ZM29.5 16V28H11.5V16H29.5ZM17.5 19.75V19H16V19.75V20.5C16 22.9844 18.0156 25 20.5 25C22.9844 25 25 22.9844 25 20.5V19.75V19H23.5V19.75V20.5C23.5 22.1875 22.1406 23.5 20.5 23.5C18.8125 23.5 17.5 22.1875 17.5 20.5V19.75Z" fill="#173767"/>
</svg>
