<svg width="32" height="32" viewBox="0 0 32 32" fill="none" xmlns="http://www.w3.org/2000/svg">
<path d="M9.25024 8.5C8.40649 8.5 7.70337 8.07812 7.28149 7.375C6.85962 6.71875 6.85962 5.82812 7.28149 5.125C7.70337 4.46875 8.40649 4 9.25024 4C10.0471 4 10.7502 4.46875 11.1721 5.125C11.594 5.82812 11.594 6.71875 11.1721 7.375C10.7502 8.07812 10.0471 8.5 9.25024 8.5ZM6.81274 10H11.6409H15.2502V7V4H18.2502H27.2502H30.2502V7V16V19H27.2502H18.2502H15.2502V16V14.5H18.2502V16H27.2502V7H18.2502V10H19.0002H20.5002V13H19.0002H18.2502H15.2502H12.6252V26.5V28H9.62524V26.5V20.5H8.87524V26.5V28H5.87524V26.5V16.0469L5.07837 17.3125L4.32837 18.625L1.75024 17.0781L2.50024 15.8125L5.54712 10.75L5.96899 10H6.81274Z" fill="#173767"/>
</svg>
