<svg width="32" height="32" viewBox="0 0 32 32" fill="none" xmlns="http://www.w3.org/2000/svg">
<path d="M16.0234 4C20.2891 4 24.2266 6.29688 26.3828 10C28.5391 13.75 28.5391 18.2969 26.3828 22C24.2266 25.75 20.2891 28 16.0234 28C11.7109 28 7.77344 25.75 5.61719 22C3.46094 18.2969 3.46094 13.75 5.61719 10C7.77344 6.29688 11.7109 4 16.0234 4ZM15.2266 20.1719L16.0234 20.9688L16.8203 20.1719L21.6484 15.2969L22.4453 14.5L20.8984 12.9531L20.1016 13.75L16.0234 17.8281L11.9453 13.75L11.1484 12.9531L9.55469 14.5L10.3516 15.2969L15.2266 20.1719Z" fill="#173767"/>
</svg>
