<svg width="32" height="32" viewBox="0 0 32 32" fill="none" xmlns="http://www.w3.org/2000/svg">
<path d="M17.4531 26.125H15.9531V23.125H17.4531H18.9531H20.4531V26.125H18.9531H17.4531ZM17.4531 20.125H15.9531V17.125H17.4531H21.9531H23.4531V20.125H21.9531H17.4531ZM17.4531 14.125H15.9531V11.125H17.4531H24.9531H26.4531V14.125H24.9531H17.4531ZM17.4531 8.125H15.9531V5.125H17.4531H27.9531H29.4531V8.125H27.9531H17.4531ZM9.53125 25.6562L8.45312 26.875L7.32812 25.6562L3.57812 21.5312L2.54688 20.4062L4.79688 18.3906L5.78125 19.5156L6.95312 20.7812V7.375V5.875H9.95312V7.375V20.7812L11.0781 19.5156L12.0625 18.3906L14.3125 20.4062L13.2812 21.5312L9.53125 25.6562Z" fill="#173767"/>
</svg>
