<svg width="32" height="32" viewBox="0 0 32 32" fill="none" xmlns="http://www.w3.org/2000/svg">
<path d="M11.5 4.00031H14.125H15.25V6.25031H14.125H12.3906L11.5 10.0003H17.5H19V12.0159C18.0625 12.2503 17.2656 12.6253 16.6094 13.0003H2.5H1V10.0003H2.5H9.15625L10.375 4.89093L10.6094 4.00031H11.5ZM2.875 14.5003H14.6875C14.1719 15.0628 13.7969 15.6253 13.5156 16.0472C13.2812 16.4691 13.1406 16.8441 13 17.2659V28.0003H4L2.875 14.5003ZM31 17.5003V19.0003H14.5V17.5003C14.5 17.5003 16 13.0003 22.75 13.0003C29.5 13.0003 31 17.5003 31 17.5003ZM19 15.2503C18.5781 15.2503 18.25 15.5784 18.25 16.0003C18.25 16.4222 18.5781 16.7503 19 16.7503C19.375 16.7503 19.75 16.4222 19.75 16.0003C19.75 15.5784 19.375 15.2503 19 15.2503ZM22 15.2503C22 15.6722 22.3281 16.0003 22.75 16.0003C23.125 16.0003 23.5 15.6722 23.5 15.2503C23.5 14.8284 23.125 14.5003 22.75 14.5003C22.3281 14.5003 22 14.8284 22 15.2503ZM26.5 15.2503C26.0781 15.2503 25.75 15.5784 25.75 16.0003C25.75 16.4222 26.0781 16.7503 26.5 16.7503C26.875 16.7503 27.25 16.4222 27.25 16.0003C27.25 15.5784 26.875 15.2503 26.5 15.2503ZM14.5 20.5003H31V23.5003H14.5V20.5003ZM14.5 25.0003H31V28.0003H14.5V25.0003Z" fill="#173767"/>
</svg>
