<svg width="32" height="32" viewBox="0 0 32 32" fill="none" xmlns="http://www.w3.org/2000/svg">
<path d="M14.9688 6.88271L8.78125 11.9452L8.21875 12.3671L8.64062 12.9765L11.6406 17.1015L12.0625 17.7108L12.6719 17.2421L17.2188 13.7265L23.5 19.4921L25.1406 20.9921L22.0938 24.3202L20.4531 22.8202L18.3438 25.1171L16.7031 23.6171L15.6719 22.6327L13.4219 25.0702L11.7812 23.5702L8.3125 20.3827H7V9.88271L11.5 6.88271H14.9688ZM18.4375 12.7421L19.4219 11.9921L20.0312 11.5233L19.0938 10.3515L18.5312 10.8202L12.3906 15.6015L10.2344 12.6483L17.3594 6.88271H20.2656L24.7656 9.78896L24.9531 9.88271H25V18.7421L18.4375 12.7421ZM5.5 9.88271V21.8827H1V9.88271H5.5ZM3.25 18.8827C2.82812 18.8827 2.5 19.2577 2.5 19.6327C2.5 20.0546 2.82812 20.3827 3.25 20.3827C3.625 20.3827 4 20.0546 4 19.6327C4 19.2577 3.625 18.8827 3.25 18.8827ZM26.5 9.88271H31V21.8827H26.5V9.88271ZM28 19.6327C28 20.0546 28.3281 20.3827 28.75 20.3827C29.125 20.3827 29.5 20.0546 29.5 19.6327C29.5 19.2577 29.125 18.8827 28.75 18.8827C28.3281 18.8827 28 19.2577 28 19.6327Z" fill="#173767"/>
</svg>
