<svg width="32" height="32" viewBox="0 0 32 32" fill="none" xmlns="http://www.w3.org/2000/svg">
<path d="M28 23.5H18.25L11.5 28V23.5H4V4H28V23.5ZM14.875 19.75H17.125V17.5H14.875V19.75ZM14.5 7.75C13.0469 7.75 11.875 8.96875 11.875 10.375V10.7031H14.125V10.375C14.125 10.1875 14.2656 10 14.5 10H17.125C17.5469 10 17.875 10.3281 17.875 10.75C17.875 10.9844 17.7344 11.2188 17.5 11.3594L15.4375 12.5312L14.875 12.8594V15.625H17.125V14.1719L18.625 13.2812C19.5156 12.7656 20.125 11.7812 20.125 10.75C20.125 9.10938 18.7656 7.75 17.125 7.75H14.5Z" fill="#173767"/>
</svg>
