<svg width="32" height="32" viewBox="0 0 32 32" fill="none" xmlns="http://www.w3.org/2000/svg">
<path d="M18.9991 7H12.9991V10H14.4991H17.4991H18.9991V7ZM17.4991 13V14.5H21.9991H24.9991H29.4991H30.9991V17.5H29.4991H24.9991V19H26.4991H29.4991V22V25V28H26.4991H20.4991H17.4991V25V22V19H20.4991H21.9991V17.5H17.4991H14.4991H9.99915V19H11.4991H14.4991V22V25V28H11.4991H5.49915H2.49915V25V22V19H5.49915H6.99915V17.5H2.49915H0.999146V14.5H2.49915H6.99915H9.99915H14.4991V13H12.9991H9.99915V10V7V4H12.9991H18.9991H21.9991V7V10V13H18.9991H17.4991ZM24.9991 22H21.9991H20.4991V25H26.4991V22H24.9991ZM9.99915 22H6.99915H5.49915V25H11.4991V22H9.99915Z" fill="#173767"/>
</svg>
