<svg width="32" height="32" viewBox="0 0 32 32" fill="none" xmlns="http://www.w3.org/2000/svg">
<path d="M17.5 4V11.5H25V28H7V4H17.5ZM19 4L25 10H19V4ZM10 7V8.5H10.75H13.75H14.5V7H13.75H10.75H10ZM10 10V11.5H10.75H13.75H14.5V10H13.75H10.75H10ZM16.75 14.5H16.7031H15.2031V15.25V15.7188C14.9219 15.7656 14.6406 15.8594 14.3594 15.9531C13.7031 16.2344 13.1406 16.7969 13 17.5938C12.9531 18.0156 13 18.4375 13.1406 18.8125C13.3281 19.1875 13.6094 19.4688 13.8906 19.6562C14.4062 20.0312 15.1094 20.2188 15.6719 20.4062H15.7656C16.4219 20.6406 16.8906 20.7812 17.2188 21.0156C17.3125 21.1094 17.4062 21.2031 17.4531 21.25C17.4531 21.3438 17.5 21.4844 17.4531 21.6719C17.4062 21.9531 17.2656 22.0938 16.9844 22.2344C16.6562 22.375 16.1406 22.4688 15.5312 22.3281C15.2031 22.2812 14.6875 22.1406 14.2656 21.9531C14.1719 21.9531 14.0781 21.9062 13.9844 21.8594L13.2344 21.625L12.7656 23.0781L13.5156 23.3125C13.5625 23.3125 13.6094 23.3594 13.7031 23.3594C14.125 23.5 14.7812 23.7344 15.25 23.8281V24.25V25H16.75V24.25V23.8281C17.0312 23.8281 17.3125 23.7344 17.5938 23.6406C18.25 23.3125 18.8125 22.75 18.9531 21.9531C19.0469 21.4844 19 21.0625 18.8125 20.6875C18.6719 20.2656 18.3906 19.9844 18.1094 19.7969C17.5469 19.375 16.7969 19.1875 16.2344 19H16.1875C15.5781 18.8125 15.0625 18.625 14.7344 18.4375C14.5938 18.3438 14.5469 18.25 14.5 18.2031C14.5 18.1562 14.4531 18.0156 14.5 17.8281C14.5469 17.6875 14.6406 17.5 14.9688 17.3125C15.3438 17.1719 15.8594 17.0781 16.4219 17.1719C16.6562 17.2188 17.2656 17.3594 17.4531 17.4062L18.2031 17.5938L18.5781 16.1406L17.875 15.9531C17.6406 15.9062 16.9844 15.7656 16.75 15.7188V15.25V14.5Z" fill="#173767"/>
</svg>
