<svg width="32" height="32" viewBox="0 0 32 32" fill="none" xmlns="http://www.w3.org/2000/svg">
<path d="M27.4375 12.9062L27.7656 13.2344V13.7031V18.3438V18.8125L27.4375 19.1406L20.0312 26.5469L18.4375 24.9531L25.5156 17.875V14.1719L18.4375 7.04688L20.0312 5.45312L27.4375 12.9062ZM4.23438 16V5.5H14.7344L23.7344 14.5V17.5L14.7344 26.5L4.23438 16ZM10.9844 10.75C10.9844 9.95312 10.2812 9.25 9.48438 9.25C8.64062 9.25 7.98438 9.95312 7.98438 10.75C7.98438 11.5938 8.64062 12.25 9.48438 12.25C10.2812 12.25 10.9844 11.5938 10.9844 10.75Z" fill="#173767"/>
</svg>
