<svg width="32" height="32" viewBox="0 0 32 32" fill="none" xmlns="http://www.w3.org/2000/svg">
<path d="M8.5 3.99951H10H29.5H31V5.49951V21.9995V23.4995H29.5H16.1875L15.2969 20.4995H28V6.99951H11.5V9.34326C10.6094 8.82764 9.57812 8.49951 8.5 8.49951V5.49951V3.99951ZM23.1719 13.4214L19.7969 16.7964L19 17.5933L18.2031 16.7964L15.2031 13.7964L14.4062 12.9995L16 11.4526L16.7969 12.2495L19 14.4526L21.5781 11.8745L19.75 10.0464L20.5 9.29639H25.75V14.4995L25 15.2495L23.1719 13.4214ZM4 14.4995C4 12.9058 4.84375 11.4526 6.25 10.6089C7.60938 9.81201 9.34375 9.81201 10.75 10.6089C12.1094 11.4526 13 12.9058 13 14.4995C13 16.1401 12.1094 17.5933 10.75 18.437C9.34375 19.2339 7.60938 19.2339 6.25 18.437C4.84375 17.5933 4 16.1401 4 14.4995ZM13.75 20.4995L16 27.9995H1L3.25 20.4995H13.75Z" fill="#173767"/>
</svg>
