<svg width="32" height="32" viewBox="0 0 32 32" fill="none" xmlns="http://www.w3.org/2000/svg">
<path d="M25.5 5.5C26.2969 5.5 27 6.20312 27 7.04688V25C27 25.8438 26.2969 26.5 25.5 26.5H7.45312C6.65625 26.5 6 25.8438 6 25V7.04688C6 6.20312 6.65625 5.5 7.45312 5.5H25.5ZM12.3281 23.5V13.5156H9.23438V23.5H12.3281ZM10.7812 12.1094C11.7656 12.1094 12.5625 11.3125 12.5625 10.3281C12.5625 9.34375 11.7656 8.5 10.7812 8.5C9.75 8.5 8.95312 9.34375 8.95312 10.3281C8.95312 11.3125 9.75 12.1094 10.7812 12.1094ZM24 23.5V18.0156C24 15.3438 23.3906 13.2344 20.25 13.2344C18.75 13.2344 17.7188 14.0781 17.2969 14.875H17.25V13.5156H14.2969V23.5H17.3906V18.5781C17.3906 17.2656 17.625 16 19.2656 16C20.8594 16 20.8594 17.5 20.8594 18.625V23.5H24Z" fill="#173767"/>
</svg>
