<svg width="32" height="32" viewBox="0 0 32 32" fill="none" xmlns="http://www.w3.org/2000/svg">
<path d="M10.1875 24.9531H5.82812V10.9375H10.1875V24.9531ZM7.98438 9.0625C6.625 9.0625 5.5 7.89062 5.5 6.48438C5.5 5.125 6.625 4 7.98438 4C9.39062 4 10.5156 5.125 10.5156 6.48438C10.5156 7.89062 9.39062 9.0625 7.98438 9.0625ZM26.4531 24.9531H22.1406V18.1562C22.1406 16.5156 22.0938 14.4531 19.8438 14.4531C17.5938 14.4531 17.2656 16.1875 17.2656 18.0156V24.9531H12.9062V10.9375H17.0781V12.8594H17.125C17.7344 11.7812 19.1406 10.6094 21.25 10.6094C25.6562 10.6094 26.5 13.5156 26.5 17.2656V24.9531H26.4531Z" fill="#173767"/>
</svg>
