<svg width="32" height="32" viewBox="0 0 32 32" fill="none" xmlns="http://www.w3.org/2000/svg">
<path d="M17.4996 5.5V8.5V10H14.4996V8.5V5.5V4H17.4996V5.5ZM17.4996 23.5V26.5V28H14.4996V26.5V23.5V22H17.4996V23.5ZM3.99963 14.5H5.49963H8.49963H9.99963V17.5H8.49963H5.49963H3.99963V14.5ZM23.4996 14.5H26.4996H27.9996V17.5H26.4996H23.4996H21.9996V14.5H23.4996ZM8.54651 6.48438L9.62463 7.51562L11.734 9.67188L12.8121 10.7031L10.6559 12.8594L9.62463 11.7812L7.51526 9.67188L6.43713 8.59375L8.54651 6.48438ZM22.3278 20.2656L24.484 22.375L25.5153 23.4531L23.4059 25.5625L22.3278 24.4844L20.2184 22.375L19.1403 21.3438L21.2965 19.1875L22.3278 20.2656ZM6.43713 23.4531L7.51526 22.375L9.62463 20.2656L10.6559 19.1875L12.8121 21.3438L11.734 22.375L9.62463 24.4844L8.54651 25.5625L6.43713 23.4531ZM20.2184 9.67188L22.3278 7.51562L23.4059 6.48438L25.5153 8.59375L24.484 9.67188L22.3278 11.7812L21.2965 12.8594L19.1403 10.7031L20.2184 9.67188Z" fill="#173767"/>
</svg>
