<svg width="32" height="32" viewBox="0 0 32 32" fill="none" xmlns="http://www.w3.org/2000/svg">
<path d="M4 3.99998H16V16H4V3.99998ZM19 6.99998H28V16H19V6.99998ZM1 23.5C1 21.0156 3.01562 19 5.5 19H26.5C28.9844 19 31 21.0156 31 23.5C31 25.9844 28.9844 28 26.5 28H5.5C3.01562 28 1 25.9844 1 23.5ZM8.5 23.5C8.5 22.7031 7.79688 22 7 22C6.15625 22 5.5 22.7031 5.5 23.5C5.5 24.3437 6.15625 25 7 25C7.79688 25 8.5 24.3437 8.5 23.5ZM16 25C16.7969 25 17.5 24.3437 17.5 23.5C17.5 22.7031 16.7969 22 16 22C15.1562 22 14.5 22.7031 14.5 23.5C14.5 24.3437 15.1562 25 16 25ZM26.5 23.5C26.5 22.7031 25.7969 22 25 22C24.1562 22 23.5 22.7031 23.5 23.5C23.5 24.3437 24.1562 25 25 25C25.7969 25 26.5 24.3437 26.5 23.5Z" fill="#173767"/>
</svg>
