<svg width="32" height="32" viewBox="0 0 32 32" fill="none" xmlns="http://www.w3.org/2000/svg">
<path d="M14.2188 6.01562L15.25 4L16.2344 6.01562L18.25 7L16.2344 8.03125L15.25 10L14.2188 8.03125L12.25 7L14.2188 6.01562ZM21.25 13.0469L25 9.25L23.5 7.75L19.7031 11.5L21.25 13.0469ZM7.75 5.5L9.25 8.5L12.25 10L9.25 11.5L7.75 14.5L6.25 11.5L3.25 10L6.25 8.5L7.75 5.5ZM22.75 20.5L24.25 17.5L25.75 20.5L28.75 22L25.75 23.5L24.25 26.5L22.75 23.5L19.75 22L22.75 20.5ZM10 28L8.125 26.1719L6.57812 24.625L4.75 22.75L6.57812 20.9219L21.625 5.875L23.5 4L25.3281 5.875L26.875 7.42188L28.75 9.25L26.875 11.125L11.8281 26.1719L10 28Z" fill="#173767"/>
</svg>
