<svg width="32" height="32" viewBox="0 0 32 32" fill="none" xmlns="http://www.w3.org/2000/svg">
<path d="M4.39258 8.49998C4.39258 7.70311 4.81445 6.99998 5.51758 6.57811C6.17383 6.15623 7.06445 6.15623 7.76758 6.57811C8.42383 6.99998 8.89258 7.70311 8.89258 8.49998C8.89258 9.34373 8.42383 10.0469 7.76758 10.4687C7.06445 10.8906 6.17383 10.8906 5.51758 10.4687C4.81445 10.0469 4.39258 9.34373 4.39258 8.49998ZM6.64258 13.75C7.43945 13.75 8.14258 14.2187 8.56445 14.875C8.98633 15.5781 8.98633 16.4687 8.56445 17.125C8.14258 17.8281 7.43945 18.25 6.64258 18.25C5.79883 18.25 5.0957 17.8281 4.67383 17.125C4.25195 16.4687 4.25195 15.5781 4.67383 14.875C5.0957 14.2187 5.79883 13.75 6.64258 13.75ZM6.64258 21.25C7.43945 21.25 8.14258 21.7187 8.56445 22.375C8.98633 23.0781 8.98633 23.9687 8.56445 24.625C8.14258 25.3281 7.43945 25.75 6.64258 25.75C5.79883 25.75 5.0957 25.3281 4.67383 24.625C4.25195 23.9687 4.25195 23.0781 4.67383 22.375C5.0957 21.7187 5.79883 21.25 6.64258 21.25ZM13.3926 6.24998H24.6426V10.75H13.3926L10.3926 8.49998L13.3926 6.24998ZM10.3926 16L13.3926 13.75H27.6426V18.25H13.3926L10.3926 16ZM10.3926 23.5L13.3926 21.25H24.6426V25.75H13.3926L10.3926 23.5Z" fill="#173767"/>
</svg>
