<svg width="32" height="32" viewBox="0 0 32 32" fill="none" xmlns="http://www.w3.org/2000/svg">
<path d="M16.7266 4.51562V4.46875L29.4766 11.5938L30.7891 12.3438L29.3359 14.9688L28.0234 14.2188L16.0234 7.51562L3.97656 14.2188L2.66406 14.9688L1.21094 12.3438L2.52344 11.5938L15.2734 4.46875L16.0234 4.09375L16.7266 4.51562ZM16.0234 15.1562C15.3203 15.1562 14.7109 14.8281 14.3828 14.2188C14.0547 13.6562 14.0547 12.9531 14.3828 12.3438C14.7109 11.7812 15.3203 11.4062 16.0234 11.4062C16.6797 11.4062 17.2891 11.7812 17.6172 12.3438C17.9453 12.9531 17.9453 13.6562 17.6172 14.2188C17.2891 14.8281 16.6797 15.1562 16.0234 15.1562ZM7.77344 19.6562C7.07031 19.6562 6.46094 19.3281 6.13281 18.7188C5.80469 18.1562 5.80469 17.4531 6.13281 16.8438C6.46094 16.2812 7.07031 15.9062 7.77344 15.9062C8.42969 15.9062 9.03906 16.2812 9.36719 16.8438C9.69531 17.4531 9.69531 18.1562 9.36719 18.7188C9.03906 19.3281 8.42969 19.6562 7.77344 19.6562ZM26.1484 17.7812C26.1484 18.4844 25.7734 19.0938 25.2109 19.4219C24.6016 19.75 23.8984 19.75 23.3359 19.4219C22.7266 19.0938 22.3984 18.4844 22.3984 17.7812C22.3984 17.125 22.7266 16.5156 23.3359 16.1875C23.8984 15.8594 24.6016 15.8594 25.2109 16.1875C25.7734 16.5156 26.1484 17.125 26.1484 17.7812ZM5.52344 20.4062H10.0234H10.6797L12.7422 16.5156L13.0703 15.9062H13.7734H18.2734H18.9297L19.2578 16.5156L21.3672 20.4062H22.0234H26.5234H27.1797L27.5078 21.0156L30.1328 25.75L30.6484 26.7344L28.6797 27.8125L28.1641 26.8281L26.8984 24.5312V27.9062H21.6484V24.5312L20.3828 26.8281L19.8203 27.8125L17.8516 26.7344L18.4141 25.75L20.0547 22.75L19.8672 22.4688L18.6484 20.125V24.1562H13.3984V20.125L12.1328 22.4688L11.9453 22.75L13.6328 25.75L14.1484 26.7344L12.1797 27.8125L11.6641 26.8281L10.3984 24.5312V27.9062H5.14844V24.5312L3.88281 26.8281L3.32031 27.8125L1.35156 26.7344L1.91406 25.75L4.53906 21.0156L4.82031 20.4062H5.52344Z" fill="#173767"/>
</svg>
