<svg width="32" height="32" viewBox="0 0 32 32" fill="none" xmlns="http://www.w3.org/2000/svg">
<path d="M28.75 6.25H15.25V10H13V6.25V4H15.25H28.75H31V6.25V25.75V28H28.75H19V25.75H28.75V6.25ZM24.2969 15.5781L27.2969 18.5781L25.7031 20.1719L24.625 19.0938V22.375V23.5H22.375V22.375V19.0938L21.2969 20.1719L19.7031 18.5781L22.7031 15.5781L23.5 14.7812L24.2969 15.5781ZM16.75 13.75H3.25V16H4.75H15.25H16.75V13.75ZM1 18.25V16V13.75V11.5H3.25H16.75H19V13.75V16V18.25H17.5V25.75V28H15.25H4.75H2.5V25.75V18.25H1ZM4.75 25.75H15.25V18.25H4.75V25.75ZM13 19.75V22H7V19.75H13Z" fill="#173767"/>
</svg>
