<svg width="32" height="32" viewBox="0 0 32 32" fill="none" xmlns="http://www.w3.org/2000/svg">
<path d="M7.75 8.5C6.48438 8.5 5.5 9.53125 5.5 10.75V16H10V10.75C10 9.53125 8.96875 8.5 7.75 8.5ZM2.5 10.75C2.5 7.89062 4.84375 5.5 7.75 5.5C10.6094 5.5 13 7.89062 13 10.75V21.25C13 24.1562 10.6094 26.5 7.75 26.5C4.84375 26.5 2.5 24.1562 2.5 21.25V10.75ZM29.5 19C29.5 20.8281 28.8438 22.4688 27.7656 23.7812L17.2188 13.2344C18.5312 12.1562 20.1719 11.5 22 11.5C26.125 11.5 29.5 14.875 29.5 19ZM22 26.5C17.8281 26.5 14.5 23.1719 14.5 19C14.5 17.2188 15.1094 15.5781 16.1875 14.2656L26.7344 24.8125C25.4219 25.8906 23.7812 26.5 22 26.5Z" fill="#173767"/>
</svg>
