<svg width="32" height="32" viewBox="0 0 32 32" fill="none" xmlns="http://www.w3.org/2000/svg">
<path d="M21.6953 19.5625L26.8516 24.7656L27.9297 25.7969L25.8203 27.9531L24.7422 26.875L19.5391 21.6719C17.9453 22.8906 15.9297 23.5469 13.8203 23.5469C8.42969 23.5469 4.07031 19.1875 4.07031 13.7969C4.07031 8.45312 8.42969 4.04688 13.8203 4.04688C19.1641 4.04688 23.5703 8.45312 23.5703 13.7969C23.5703 15.9531 22.8672 17.9688 21.6953 19.5625ZM14.9453 8.92188H12.6953V10.0469V12.6719H10.0703H8.94531V14.9219H10.0703H12.6953V17.5469V18.6719H14.9453V17.5469V14.9219H17.5703H18.6953V12.6719H17.5703H14.9453V10.0469V8.92188Z" fill="#173767"/>
</svg>
