<svg width="32" height="32" viewBox="0 0 32 32" fill="none" xmlns="http://www.w3.org/2000/svg">
<path d="M7.04688 4.18701H10.3281L10.7969 6.48389C11.4062 6.71826 12.0156 7.04639 12.5312 7.51514L14.5469 6.81201L16.1875 9.62451L14.5938 11.0308C14.6406 11.3589 14.6875 11.7339 14.6875 12.062C14.6875 12.437 14.6406 12.812 14.5938 13.1401L16.1875 14.5464L14.5469 17.312L12.5312 16.6558C12.0156 17.1245 11.4062 17.4526 10.7969 17.687L10.3281 19.937H7.04688L6.57812 17.687C5.92188 17.4526 5.3125 17.1245 4.79688 16.6558L2.78125 17.312L1.1875 14.5464L2.73438 13.1401C2.6875 12.812 2.6875 12.437 2.6875 12.062C2.6875 11.7339 2.6875 11.3589 2.73438 11.0308L1.1875 9.62451L2.78125 6.81201L4.79688 7.51514C5.3125 7.04639 5.92188 6.71826 6.57812 6.48389L7.04688 4.18701ZM10.9375 12.062C10.9375 11.2651 10.4688 10.562 9.8125 10.1401C9.10938 9.71826 8.21875 9.71826 7.5625 10.1401C6.85938 10.562 6.4375 11.2651 6.4375 12.062C6.4375 12.9058 6.85938 13.6089 7.5625 14.0308C8.21875 14.4526 9.10938 14.4526 9.8125 14.0308C10.4688 13.6089 10.9375 12.9058 10.9375 12.062ZM30.8125 21.9526L28.5625 22.4214C28.3281 23.0308 28 23.5933 27.5781 24.1089L28.2812 26.2183L25.4219 27.812L23.9688 26.2183C23.6406 26.312 23.2656 26.312 22.9375 26.312C22.5625 26.312 22.1875 26.312 21.8594 26.2183L20.4062 27.812L17.5469 26.2183L18.25 24.1089C17.875 23.5933 17.5 23.0308 17.3125 22.4214L15.0625 21.9526V18.7183L17.2656 18.2495C17.5 17.6401 17.8281 17.0308 18.25 16.562L17.5469 14.4526L20.4062 12.812L21.8594 14.4058C22.1875 14.3589 22.5625 14.312 22.8906 14.312C23.2656 14.312 23.6406 14.3589 23.9688 14.4058L25.4219 12.812L28.2812 14.4526L27.5781 16.562C28 17.0776 28.3281 17.6401 28.5625 18.2495L30.7656 18.7183V21.9526H30.8125ZM22.9375 22.562C23.7344 22.562 24.4375 22.1401 24.8594 21.437C25.2812 20.7808 25.2812 19.8901 24.8594 19.187C24.4375 18.5308 23.7344 18.062 22.9375 18.062C22.0938 18.062 21.3906 18.5308 20.9688 19.187C20.5469 19.8901 20.5469 20.7808 20.9688 21.437C21.3906 22.1401 22.0938 22.562 22.9375 22.562Z" fill="#173767"/>
</svg>
