<svg width="32" height="32" viewBox="0 0 32 32" fill="none" xmlns="http://www.w3.org/2000/svg">
<path d="M23.875 5.5L24.1562 5.82812C25.7969 7.51562 26.5469 9.85938 26.1719 12.1562L29.5 14.875V19.0469H21.9062L21.625 19.1875L19 20.7344V19.9844C19 17.3125 17.2188 14.9688 14.6406 14.2188L13.1875 13.7969L12.7656 15.25L14.2188 15.6719C16.1406 16.1875 17.5 17.9688 17.5 19.9844V22H18.2031H19H22H23.5V25H22H16H15.3906L14.9688 24.625L7.89062 18.1094C7.23438 17.5 6.76562 16.7969 6.53125 15.9531C6.10938 16.2344 5.64062 16.375 5.125 16.375C3.67188 16.375 2.5 15.2031 2.5 13.75C2.5 12.3438 3.67188 11.125 5.125 11.125C5.92188 11.125 6.67188 11.5 7.14062 12.1094C7.9375 10.7969 9.29688 10 10.8438 10C12.4844 10 14.125 10.4688 15.5781 11.2656L20.5 14.0781V12.8125C18.9062 11.9219 17.6875 10.4688 17.0781 8.6875L16.75 7.75L18.25 7L18.6719 7.14062C20.875 7.79688 22.6094 9.4375 23.4531 11.5H24.6719C24.2031 10.0938 23.3594 8.875 22.2344 7.89062C22.2812 7.32812 22.375 6.8125 22.5156 6.29688L22.75 5.5H23.875ZM10 23.1719L10.6562 22.7031L12.9531 24.8125L11.6406 25.6562L10.375 26.5L8.73438 23.9688L10 23.1719ZM25 15.25C25 15.6719 25.3281 16 25.75 16C26.125 16 26.5 15.6719 26.5 15.25C26.5 14.875 26.125 14.5 25.75 14.5C25.3281 14.5 25 14.875 25 15.25Z" fill="#173767"/>
</svg>
