<svg width="32" height="32" viewBox="0 0 32 32" fill="none" xmlns="http://www.w3.org/2000/svg">
<path d="M20.4999 8.5H24.1093L24.5311 8.96875L29.0311 13.4688L29.4999 13.8906V20.5H30.9999V23.5H27.9999C27.9999 25.9844 25.9843 28 23.4999 28C21.0155 28 18.9999 25.9844 18.9999 23.5H12.9999C12.9999 25.9844 10.9843 28 8.49988 28C6.0155 28 3.99988 25.9844 3.99988 23.5H0.999878V4H20.4999V8.5ZM24.6249 21.5781C23.9218 21.1562 23.0311 21.1562 22.3749 21.5781C21.6718 22 21.2499 22.7031 21.2499 23.5C21.2499 24.3438 21.6718 25.0469 22.3749 25.4688C23.0311 25.8906 23.9218 25.8906 24.6249 25.4688C25.2811 25.0469 25.7499 24.3438 25.7499 23.5C25.7499 22.7031 25.2811 22 24.6249 21.5781ZM8.49988 21.25C7.65613 21.25 6.953 21.7188 6.53113 22.375C6.10925 23.0781 6.10925 23.9688 6.53113 24.625C6.953 25.3281 7.65613 25.75 8.49988 25.75C9.29675 25.75 9.99988 25.3281 10.4218 24.625C10.8436 23.9688 10.8436 23.0781 10.4218 22.375C9.99988 21.7188 9.29675 21.25 8.49988 21.25ZM3.49988 13L8.84363 18.3438L10.4374 16.75L7.81238 14.125H16.7186V11.875H7.81238L10.4374 9.25L8.84363 7.70312L3.49988 13ZM20.4999 16H26.4999V15.1562L22.8436 11.5H20.4999V16Z" fill="#173767"/>
</svg>
