<svg width="32" height="32" viewBox="0 0 32 32" fill="none" xmlns="http://www.w3.org/2000/svg">
<path d="M8.5 4H23.5C23.5 5.07812 23.4531 6.0625 23.4062 7H28.375H29.5V8.125C29.5 14.4531 26.1719 17.875 22.8906 19.6562C21.2969 20.5469 19.6562 21.0625 18.4844 21.2969C18.2031 21.3906 17.9688 21.4375 17.7344 21.4844C17.6406 21.5312 17.5469 21.5781 17.5 21.5781V25H20.875H22V26.125V26.875V28H20.875H11.125H10V26.875V26.125V25H11.125H14.5V21.5781C14.4062 21.5781 14.3125 21.5312 14.2656 21.4844C14.0312 21.4375 13.75 21.3906 13.4688 21.3438C12.2969 21.0625 10.7031 20.5469 9.0625 19.7031C5.78125 17.875 2.5 14.4531 2.5 8.125V7H3.625H8.54688C8.5 6.0625 8.5 5.07812 8.5 4ZM4.75 9.25C5.125 13.8438 7.60938 16.3281 10.1406 17.6875C10.4688 17.875 10.8438 18.0625 11.1719 18.2031C10.0938 16.3281 9.15625 13.5156 8.73438 9.25H4.75ZM21.8125 17.6875C24.3438 16.3281 26.8281 13.8438 27.2031 9.25H23.2188C22.7969 13.5156 21.8594 16.3281 20.7812 18.2031C21.1562 18.0625 21.4844 17.875 21.8125 17.6875ZM17.3125 10.0938L16 7.375L14.6406 10.0938L11.6875 10.5156L13.8438 12.5781L13.3281 15.5312L16 14.125L18.625 15.5312L18.1094 12.5781L20.2656 10.5156L17.3125 10.0938Z" fill="#173767"/>
</svg>
