<svg width="32" height="32" viewBox="0 0 32 32" fill="none" xmlns="http://www.w3.org/2000/svg">
<path d="M24.25 4V28H4.75V4H24.25ZM18.25 17.5H10.75L9.25 22H19.75L18.25 17.5ZM11.5 13C11.5 14.0781 12.0625 15.0625 13 15.625C13.8906 16.1406 15.0625 16.1406 16 15.625C16.8906 15.0625 17.5 14.0781 17.5 13C17.5 11.9688 16.8906 10.9844 16 10.4219C15.0625 9.90625 13.8906 9.90625 13 10.4219C12.0625 10.9844 11.5 11.9688 11.5 13ZM27.25 7.75V10.75V11.5H25.75V10.75V7.75V7H27.25V7.75ZM27.25 13V13.75V16.75V17.5H25.75V16.75V13.75V13H27.25ZM27.25 19.75V22.75V23.5H25.75V22.75V19.75V19H27.25V19.75Z" fill="#173767"/>
</svg>
