<svg width="32" height="32" viewBox="0 0 32 32" fill="none" xmlns="http://www.w3.org/2000/svg">
<path d="M21.25 8.5V8.54688C20.9688 8.54688 20.7344 8.5 20.5 8.5H14.5C13.7031 8.5 12.9531 8.64062 12.25 8.78125C12.25 8.6875 12.25 8.59375 12.25 8.5C12.25 6.01562 14.2656 4 16.75 4C19.2344 4 21.25 6.01562 21.25 8.5ZM20.5 10C20.6406 10 20.8281 10.0469 20.9688 10.0469C21.1562 10.0469 21.3438 10.0469 21.5781 10.0938C22.375 9.15625 23.5938 8.5 25 8.5H26.5L25.6094 12.0625C26.3594 12.7188 26.9219 13.5625 27.3438 14.5H29.5V22H26.5C26.0312 22.6094 25.5625 23.0781 25 23.5V28H20.5V25H14.5V28H10V23.5C8.35938 22.2812 7.23438 20.4062 7 18.25H5.6875C3.90625 18.25 2.5 16.8438 2.5 15.0625C2.5 13.3281 3.90625 11.875 5.6875 11.875H6.25V14.125H5.6875C5.17188 14.125 4.75 14.5469 4.75 15.0625C4.75 15.5781 5.17188 16 5.6875 16H7.14062C7.70312 13.2344 9.8125 10.9844 12.5781 10.2812C13.1875 10.0938 13.8438 10 14.5 10H20.5ZM23.5 16.375C23.5 15.7656 22.9844 15.25 22.375 15.25C21.7188 15.25 21.25 15.7656 21.25 16.375C21.25 17.0312 21.7188 17.5 22.375 17.5C22.9844 17.5 23.5 17.0312 23.5 16.375Z" fill="#173767"/>
</svg>
