<svg width="32" height="32" viewBox="0 0 32 32" fill="none" xmlns="http://www.w3.org/2000/svg">
<path d="M23.5703 13.7969C23.5703 15.9531 22.8672 17.9688 21.6953 19.5625L26.8516 24.7656L27.9297 25.7969L25.8203 27.9531L24.7422 26.875L19.5391 21.6719C17.9453 22.8906 15.9297 23.5469 13.8203 23.5469C8.42969 23.5469 4.07031 19.1875 4.07031 13.7969C4.07031 8.45312 8.42969 4.04688 13.8203 4.04688C19.1641 4.04688 23.5703 8.45312 23.5703 13.7969ZM13.8203 20.5469C16.2109 20.5469 18.4141 19.2812 19.6328 17.1719C20.8516 15.1094 20.8516 12.5312 19.6328 10.4219C18.4141 8.35938 16.2109 7.04688 13.8203 7.04688C11.3828 7.04688 9.17969 8.35938 7.96094 10.4219C6.74219 12.5312 6.74219 15.1094 7.96094 17.1719C9.17969 19.2812 11.3828 20.5469 13.8203 20.5469Z" fill="#173767"/>
</svg>
