<svg width="32" height="32" viewBox="0 0 32 32" fill="none" xmlns="http://www.w3.org/2000/svg">
<path d="M16.0235 4L16.5391 4.23438L26.2891 7.98438L27.1797 8.35938L27.2266 9.29688C27.3672 11.6406 26.9922 15.25 25.4922 18.7188C23.9453 22.2344 21.2266 25.75 16.586 27.7656L16.0235 28L15.4141 27.7656C10.7735 25.75 8.05472 22.2812 6.50785 18.7188C5.00785 15.25 4.63285 11.6406 4.77347 9.29688L4.82035 8.35938L5.71097 7.98438L15.461 4.23438L16.0235 4ZM21.3203 13.7969L22.1172 13L20.5235 11.4531L19.7266 12.25L14.5235 17.4531L12.3203 15.25L11.5235 14.4531L9.92972 16L10.7266 16.7969L13.7266 19.7969L14.5235 20.5938L15.3203 19.7969L21.3203 13.7969Z" fill="#173767"/>
</svg>
