<svg width="32" height="32" viewBox="0 0 32 32" fill="none" xmlns="http://www.w3.org/2000/svg">
<path d="M11.5 28L4 20.5L7.1875 17.3125L9.4375 19.5625L10 20.0781L11.0312 19L10.5156 18.4844L8.26562 16.2344L10.1875 14.3125L12.4375 16.5625L13 17.0781L14.0312 16L13.5156 15.4844L11.2656 13.2344L13.1875 11.3125L15.4375 13.5625L16 14.0781L17.0312 13L16.5156 12.4844L14.2656 10.2344L16.1875 8.3125L18.4375 10.5625L19 11.0781L20.0312 10L19.5156 9.48438L17.2656 7.23438L20.5 4L28 11.5L11.5 28Z" fill="#173767"/>
</svg>
