<svg width="32" height="32" viewBox="0 0 32 32" fill="none" xmlns="http://www.w3.org/2000/svg">
<path d="M15.6953 4H19.4453V7H17.1953V8.64062C18.9297 8.92188 20.5234 9.625 21.8359 10.7031L22.8672 9.71875L23.9453 8.64062L26.0547 10.75L24.9766 11.8281L23.8516 12.9531C24.8359 14.5 25.4453 16.3281 25.4453 18.25C25.4453 23.6406 21.0391 28 15.6953 28C10.3047 28 5.94531 23.6406 5.94531 18.25C5.94531 13.375 9.50781 9.34375 14.1953 8.64062V7H11.9453V4H15.6953ZM16.8203 14.125V13H14.5703V14.125V19.375V20.5H16.8203V19.375V14.125Z" fill="#173767"/>
</svg>
