<svg width="32" height="32" viewBox="0 0 32 32" fill="none" xmlns="http://www.w3.org/2000/svg">
<path d="M16 4.375C22.375 4.375 27.625 9.625 27.625 16C27.625 22.4219 22.375 27.625 16 27.625C9.57812 27.625 4.375 22.4219 4.375 16C4.375 9.625 9.57812 4.375 16 4.375ZM20.6875 21.4844C21.0625 21.4844 21.3906 21.2031 21.3906 20.7812C21.3906 20.3594 21.25 20.1719 20.9688 19.9844C17.5938 18.0156 13.7031 17.9219 9.85938 18.7656C9.48438 18.8594 9.20312 19.0938 9.20312 19.5625C9.20312 19.9375 9.48438 20.3125 9.95312 20.3125C10.0938 20.3125 10.3281 20.2188 10.5156 20.1719C13.8906 19.5156 17.2656 19.5625 20.2188 21.3438C20.3594 21.4375 20.5 21.4844 20.6875 21.4844ZM21.9531 18.4375C22.4688 18.4375 22.8438 18.0156 22.8906 17.5C22.8906 17.125 22.7031 16.7969 22.3281 16.6094C20.0312 15.2031 17.0781 14.4531 14.0312 14.4531C12.1094 14.4531 10.75 14.7344 9.4375 15.1094C8.96875 15.25 8.73438 15.5781 8.73438 16.0469C8.73438 16.5625 9.15625 16.9844 9.625 16.9844C9.85938 16.9844 9.95312 16.8906 10.1875 16.8438C14.0781 15.8125 18.4375 16.5156 21.3906 18.25C21.5312 18.2969 21.7188 18.4375 21.9531 18.4375ZM23.4062 14.875C23.9688 14.875 24.4844 14.4062 24.4844 13.75C24.4844 13.1875 24.25 12.9062 23.875 12.7188C21.2969 11.1719 17.6875 10.4688 14.2656 10.4688C12.25 10.4688 10.4219 10.7031 8.78125 11.1719C8.35938 11.3125 7.9375 11.6406 7.9375 12.2969C7.9375 12.9062 8.40625 13.4219 9.01562 13.4219C9.25 13.4219 9.48438 13.3281 9.625 13.2812C13.5156 12.2031 19.4688 12.6719 22.7969 14.6875C23.0312 14.7812 23.1719 14.875 23.4062 14.875Z" fill="#173767"/>
</svg>
