<svg width="32" height="32" viewBox="0 0 32 32" fill="none" xmlns="http://www.w3.org/2000/svg">
<path d="M16.0234 28C11.7109 28 7.77344 25.75 5.61719 22C3.46094 18.2969 3.46094 13.75 5.61719 10C7.77344 6.29688 11.7109 4 16.0234 4C20.2891 4 24.2266 6.29688 26.3828 10C28.5391 13.75 28.5391 18.2969 26.3828 22C24.2266 25.75 20.2891 28 16.0234 28ZM21.3203 13.7969H21.2734L22.0703 13L20.5234 11.4062L19.7266 12.2031L14.5234 17.4531L12.3203 15.25L11.5234 14.4531L9.92969 16L10.7266 16.7969L13.7266 19.7969L14.5234 20.5938L15.3203 19.7969L21.3203 13.7969Z" fill="#173767"/>
</svg>
