<svg width="32" height="32" viewBox="0 0 32 32" fill="none" xmlns="http://www.w3.org/2000/svg">
<path d="M22.7498 20.5L24.9998 28H6.99976L9.24976 20.5H22.7498ZM16.0173 10.0117C16.7966 10.0117 17.5701 10.2109 18.2498 10.6094C19.5682 11.4004 20.3922 12.7271 20.49 14.2031C20.4968 14.3014 20.4998 14.4005 20.4998 14.5C20.4998 14.6026 20.4969 14.7046 20.49 14.8057C20.392 16.3201 19.568 17.6465 18.2498 18.4375C17.565 18.8389 16.785 19.0372 15.9998 19.0342C15.2145 19.0372 14.4346 18.8389 13.7498 18.4375C12.3435 17.5938 11.4998 16.1406 11.4998 14.5C11.4998 12.9062 12.3435 11.4531 13.7498 10.6094C14.4294 10.2109 15.2029 10.0117 15.9822 10.0117H16.0173ZM10.1873 13C10.0466 13.5156 9.99976 13.9844 9.99976 14.5C9.99976 16.3281 10.7498 17.9219 12.0154 19H0.999756L3.24976 13H10.1873ZM28.7498 13L30.9998 19H19.9841C21.2498 17.9219 21.9998 16.3281 21.9998 14.5C21.9998 13.9844 21.9529 13.5156 21.8123 13H28.7498ZM7.74976 4C9.06226 4 10.281 4.75 10.9841 5.875C11.6404 7.04688 11.6404 8.5 10.9841 9.625C10.281 10.7969 9.06226 11.5 7.74976 11.5C6.39038 11.5 5.17163 10.7969 4.46851 9.625C3.81226 8.5 3.81226 7.04688 4.46851 5.875C5.17163 4.75 6.39038 4 7.74976 4ZM24.2498 4C25.6091 4 26.8279 4.75 27.531 5.875C28.1873 7.04688 28.1873 8.5 27.531 9.625C26.8279 10.7969 25.6091 11.5 24.2498 11.5C22.9373 11.5 21.7185 10.7969 21.0154 9.625C20.3591 8.5 20.3591 7.04688 21.0154 5.875C21.7185 4.75 22.9373 4 24.2498 4Z" fill="#173767"/>
</svg>
