<svg width="32" height="32" viewBox="0 0 32 32" fill="none" xmlns="http://www.w3.org/2000/svg">
<path d="M7 9.99951C5.92188 9.99951 4.9375 9.43701 4.375 8.49951C3.85938 7.60889 3.85938 6.43701 4.375 5.49951C4.9375 4.60889 5.92188 3.99951 7 3.99951C8.03125 3.99951 9.01562 4.60889 9.57812 5.49951C10.0938 6.43701 10.0938 7.60889 9.57812 8.49951C9.01562 9.43701 8.03125 9.99951 7 9.99951ZM7.42188 19.3276L10 21.9058V27.9995H4V20.4995H2.125L2.5 11.4995H11.5L11.5469 13.0933L7.42188 17.2183L6.34375 18.2495L7.42188 19.3276ZM25 9.99951C23.9219 9.99951 22.9375 9.43701 22.375 8.49951C21.8594 7.60889 21.8594 6.43701 22.375 5.49951C22.9375 4.60889 23.9219 3.99951 25 3.99951C26.0312 3.99951 27.0156 4.60889 27.5781 5.49951C28.0938 6.43701 28.0938 7.60889 27.5781 8.49951C27.0156 9.43701 26.0312 9.99951 25 9.99951ZM29.875 20.4995H28V27.9995H22V21.9058L24.5312 19.3276L25.6094 18.2495L24.5312 17.2183L20.4062 13.0933L20.5 11.4995H29.5L29.875 20.4995ZM13.75 12.9995V16.7495H18.25V12.9995L23.5 18.2495L18.25 23.4995V19.7495H13.75V23.4995L8.5 18.2495L13.75 12.9995Z" fill="#173767"/>
</svg>
