<svg width="32" height="32" viewBox="0 0 32 32" fill="none" xmlns="http://www.w3.org/2000/svg">
<path d="M11.6641 16C9.50781 16 7.53906 14.875 6.46094 13C5.38281 11.1719 5.38281 8.875 6.46094 7C7.53906 5.17188 9.50781 4 11.6641 4C13.7734 4 15.7422 5.17188 16.8203 7C17.8984 8.875 17.8984 11.1719 16.8203 13C15.7422 14.875 13.7734 16 11.6641 16ZM22.1641 28H1.16406L4.16406 18.25H14.6641C14.6641 18.5312 14.6641 18.7656 14.6641 19C14.6641 22.9844 17.7578 26.2656 21.6953 26.5L22.1641 28ZM22.1641 15.2969C20.8047 15.2969 19.5859 16 18.8828 17.1719C18.2266 18.2969 18.2266 19.75 18.8828 20.9219C19.5859 22.0469 20.8047 22.7969 22.1641 22.7969C23.4766 22.7969 24.6953 22.0469 25.3984 20.9219C26.0547 19.75 26.0547 18.2969 25.3984 17.1719C24.6953 16 23.4766 15.2969 22.1641 15.2969ZM22.1641 25.0469C18.8359 25.0469 16.1641 22.3281 16.1641 19.0469C16.1641 15.7188 18.8359 13.0469 22.1641 13.0469C25.4453 13.0469 28.1641 15.7188 28.1641 19.0469C28.1641 20.2656 27.7422 21.4375 27.0859 22.4219L30.0391 25.3281L30.8359 26.125L29.2891 27.7188L28.4922 26.9219L25.5391 23.9688C24.5547 24.625 23.3828 25.0469 22.1641 25.0469Z" fill="#173767"/>
</svg>
