<svg width="32" height="32" viewBox="0 0 32 32" fill="none" xmlns="http://www.w3.org/2000/svg">
<path d="M7.75 6.23242C7.75 5.43555 8.17188 4.73242 8.875 4.31055C9.53125 3.88867 10.4219 3.88867 11.125 4.31055C11.7812 4.73242 12.25 5.43555 12.25 6.23242C12.25 7.07617 11.7812 7.7793 11.125 8.20117C10.4219 8.62305 9.53125 8.62305 8.875 8.20117C8.17188 7.7793 7.75 7.07617 7.75 6.23242ZM6.76562 9.98242H7.5625H12.3906H13.1875L13.6562 10.6855L16.75 15.5605C16 16.3574 15.4375 17.248 15.0625 18.2324L14.9219 18.3262L13.375 15.8418V26.4824V27.9824H10.375V26.4824V20.4824H9.625V26.4824V27.9824H6.625V26.4824V15.8418L5.03125 18.3262L2.5 16.6855L6.34375 10.6855L6.76562 9.98242ZM16 21.2324C16 18.8418 17.2656 16.6387 19.375 15.4199C21.4375 14.2012 24.0156 14.2012 26.125 15.4199C28.1875 16.6387 29.5 18.8418 29.5 21.2324C29.5 23.6699 28.1875 25.873 26.125 27.0918C24.0156 28.3105 21.4375 28.3105 19.375 27.0918C17.2656 25.873 16 23.6699 16 21.2324ZM26.4062 19.7324L25.375 18.7012L24.8125 19.2168L22 22.0762L20.6406 20.7168L20.125 20.2012L19.0469 21.2324L19.5625 21.7949L21.4375 23.6699L22 24.1855L22.5156 23.6699L25.8906 20.2949L26.4062 19.7324Z" fill="#173767"/>
</svg>
