<svg width="32" height="32" viewBox="0 0 32 32" fill="none" xmlns="http://www.w3.org/2000/svg">
<path d="M19.0227 5.5H25.0227H26.5227V8.5H25.0227H19.679C19.4446 9.71875 18.6008 10.75 17.5227 11.2188V25H25.0227H26.5227V28H25.0227H16.0227H7.02271H5.52271V25H7.02271H14.5227V11.2188C13.3977 10.7031 12.554 9.71875 12.3196 8.5H7.02271H5.52271V5.5H7.02271H13.0227C13.679 4.60938 14.7571 4 16.0227 4C17.2415 4 18.3196 4.60938 19.0227 5.5ZM6.27271 10H7.77271H8.42896L8.75708 10.6094L12.8821 18.4844L12.9758 18.7656V19V20.5V20.9688L12.6477 21.2969L10.7727 23.1719L10.4446 23.5H10.0227H4.02271H3.55396L3.22583 23.1719L1.35083 21.2969L1.02271 20.9688V20.5V19V18.7656L1.11646 18.4844L5.24146 10.6094L5.56958 10H6.27271ZM3.41333 19H10.5852L7.06958 12.25H6.92896L3.41333 19ZM23.5696 10H24.2727H25.7727H26.429L26.7571 10.6094L30.8821 18.4844L30.9758 18.7656V19V20.5V20.9688L30.6477 21.2969L28.7727 23.1719L28.4446 23.5H28.0227H22.0227H21.554L21.2258 23.1719L19.3508 21.2969L19.0227 20.9688V20.5V19V18.7656L19.1165 18.4844L23.2415 10.6094L23.5696 10ZM24.929 12.25L21.4133 19H28.5852L25.0696 12.25H24.929Z" fill="#173767"/>
</svg>
